<?xml version="1.0" standalone="no"?>
<!DOCTYPE svg PUBLIC "-//W3C//DTD SVG 20010904//EN"
 "http://www.w3.org/TR/2001/REC-SVG-20010904/DTD/svg10.dtd">
<svg version="1.0" xmlns="http://www.w3.org/2000/svg"
 width="100.000000pt" height="100.000000pt" viewBox="0 0 100.000000 100.000000"
 preserveAspectRatio="xMidYMid meet">
<metadata>
Created by potrace 1.14, written by Peter Selinger 2001-2017
</metadata>
<g transform="translate(0.000000,100.000000) scale(0.100000,-0.100000)"
fill="#000000" stroke="none">
<path d="M393 856 c-179 -57 -276 -215 -244 -393 17 -86 33 -98 139 -98 72 1
99 5 157 29 131 54 264 156 299 230 29 61 27 84 -7 124 -45 52 -55 59 -119 91
-65 32 -156 39 -225 17z"/>
<path d="M690 857 c0 -4 20 -25 44 -47 24 -22 50 -54 59 -72 50 -103 -77 -261
-287 -358 -101 -47 -163 -62 -240 -59 -104 3 -146 46 -160 162 l-8 58 -34 -46
c-50 -64 -64 -105 -64 -179 0 -61 2 -68 33 -99 144 -143 569 -19 827 242 154
156 170 309 40 376 -33 17 -210 35 -210 22z"/>
<path d="M716 289 c-48 -32 -129 -75 -180 -96 -87 -37 -90 -38 -54 -41 79 -7
202 41 258 100 34 36 73 88 69 92 -2 2 -44 -22 -93 -55z"/>
</g>
</svg>
